<mxfile host="Electron" agent="Mozilla/5.0 (Windows NT 10.0; Win64; x64) AppleWebKit/537.36 (KHTML, like Gecko) draw.io/24.7.5 Chrome/126.0.6478.183 Electron/31.3.0 Safari/537.36" version="24.7.5">
  <diagram name="第 1 页" id="-Mr6WVWV5w4Q6lLTj6eJ">
    <mxGraphModel dx="1036" dy="606" grid="1" gridSize="10" guides="1" tooltips="1" connect="1" arrows="1" fold="1" page="1" pageScale="1" pageWidth="827" pageHeight="1169" math="0" shadow="0">
      <root>
        <mxCell id="0" />
        <mxCell id="1" parent="0" />
        <mxCell id="8cvglZe6MoWpanzuJyqT-7" value="" style="rounded=0;whiteSpace=wrap;html=1;" parent="1" vertex="1">
          <mxGeometry x="160" y="80" width="370" height="90" as="geometry" />
        </mxCell>
        <mxCell id="8cvglZe6MoWpanzuJyqT-13" value="" style="shape=flexArrow;endArrow=classic;html=1;rounded=0;exitX=0.5;exitY=1;exitDx=0;exitDy=0;entryX=0.793;entryY=0;entryDx=0;entryDy=0;entryPerimeter=0;" parent="1" source="8cvglZe6MoWpanzuJyqT-3" target="8cvglZe6MoWpanzuJyqT-14" edge="1">
          <mxGeometry width="50" height="50" relative="1" as="geometry">
            <mxPoint x="350" y="170" as="sourcePoint" />
            <mxPoint x="454" y="410" as="targetPoint" />
          </mxGeometry>
        </mxCell>
        <mxCell id="8cvglZe6MoWpanzuJyqT-11" value="" style="shape=flexArrow;endArrow=classic;html=1;rounded=0;exitX=0.5;exitY=1;exitDx=0;exitDy=0;" parent="1" source="8cvglZe6MoWpanzuJyqT-2" edge="1">
          <mxGeometry width="50" height="50" relative="1" as="geometry">
            <mxPoint x="240" y="170" as="sourcePoint" />
            <mxPoint x="340" y="310" as="targetPoint" />
          </mxGeometry>
        </mxCell>
        <mxCell id="8cvglZe6MoWpanzuJyqT-1" value="模型生成" style="rounded=0;whiteSpace=wrap;html=1;" parent="1" vertex="1">
          <mxGeometry x="190" y="120" width="80" height="40" as="geometry" />
        </mxCell>
        <mxCell id="8cvglZe6MoWpanzuJyqT-2" value="模型转换为中间文件" style="rounded=0;whiteSpace=wrap;html=1;" parent="1" vertex="1">
          <mxGeometry x="300" y="120" width="80" height="40" as="geometry" />
        </mxCell>
        <mxCell id="8cvglZe6MoWpanzuJyqT-3" value="框架加载模型阶段" style="rounded=0;whiteSpace=wrap;html=1;" parent="1" vertex="1">
          <mxGeometry x="413.5" y="120" width="80" height="40" as="geometry" />
        </mxCell>
        <mxCell id="8cvglZe6MoWpanzuJyqT-4" value="" style="endArrow=classic;html=1;rounded=0;entryX=0;entryY=0.5;entryDx=0;entryDy=0;" parent="1" target="8cvglZe6MoWpanzuJyqT-3" edge="1">
          <mxGeometry width="50" height="50" relative="1" as="geometry">
            <mxPoint x="380" y="140" as="sourcePoint" />
            <mxPoint x="320" y="90" as="targetPoint" />
          </mxGeometry>
        </mxCell>
        <mxCell id="8cvglZe6MoWpanzuJyqT-6" value="" style="endArrow=classic;html=1;rounded=0;exitX=1;exitY=0.5;exitDx=0;exitDy=0;" parent="1" source="8cvglZe6MoWpanzuJyqT-1" edge="1">
          <mxGeometry width="50" height="50" relative="1" as="geometry">
            <mxPoint x="390" y="150" as="sourcePoint" />
            <mxPoint x="300" y="140" as="targetPoint" />
          </mxGeometry>
        </mxCell>
        <mxCell id="8cvglZe6MoWpanzuJyqT-8" value="框架优化流程" style="rounded=0;whiteSpace=wrap;html=1;" parent="1" vertex="1">
          <mxGeometry x="295" y="80" width="90" height="30" as="geometry" />
        </mxCell>
        <mxCell id="8cvglZe6MoWpanzuJyqT-9" value="" style="shape=flexArrow;endArrow=classic;html=1;rounded=0;exitX=0.5;exitY=1;exitDx=0;exitDy=0;entryX=0.189;entryY=-0.016;entryDx=0;entryDy=0;entryPerimeter=0;" parent="1" source="8cvglZe6MoWpanzuJyqT-1" target="8cvglZe6MoWpanzuJyqT-10" edge="1">
          <mxGeometry width="50" height="50" relative="1" as="geometry">
            <mxPoint x="230" y="250" as="sourcePoint" />
            <mxPoint x="230" y="210" as="targetPoint" />
          </mxGeometry>
        </mxCell>
        <mxCell id="8cvglZe6MoWpanzuJyqT-10" value="模型生成阶段，包含模型的设计、训练和验证，选择合适的框架，并根据该框架的特点设计网络结构，可使用参数剪枝、模型量化、紧凑网络、低秩分解、参数共享等方法，在算法层面减少模型的存储和计算需求，提高模型效果并加快后续推理速度。&lt;b&gt;该阶段主要是设计算法，提高模型的整体性能。&lt;/b&gt;" style="rounded=1;whiteSpace=wrap;html=1;align=left;" parent="1" vertex="1">
          <mxGeometry x="160" y="200" width="370" height="80" as="geometry" />
        </mxCell>
        <mxCell id="8cvglZe6MoWpanzuJyqT-12" value="模型转换为中间表示IR时，会进行如下优化：&lt;br&gt;1.层融合，合并一起执行的连续层，减少计算负载；&lt;br&gt;2.图优化，去除训练时需要但推理时不需要的操作和步骤；&lt;br&gt;3.调整数据格式和布局，提高数据加载效率并降低内存利用，这包括中间表示的数据精度、数据格式的优化等；" style="rounded=1;whiteSpace=wrap;html=1;align=left;" parent="1" vertex="1">
          <mxGeometry x="160" y="310" width="370" height="80" as="geometry" />
        </mxCell>
        <mxCell id="8cvglZe6MoWpanzuJyqT-14" value="框架加载模型阶段，会进行如下优化：&lt;br&gt;1.针对特定硬件进行优化，如并行处理以及特定指令集优化模型；&lt;br&gt;2.将模型某些部分编译为硬件特定的代码；&lt;br&gt;3.提供优化过的内存分配策略，减少内存碎片，降低对内存的需求。" style="rounded=1;whiteSpace=wrap;html=1;align=left;" parent="1" vertex="1">
          <mxGeometry x="160" y="420" width="370" height="60" as="geometry" />
        </mxCell>
      </root>
    </mxGraphModel>
  </diagram>
</mxfile>
